HIERARCHY
ROOT SpineBase
{
  OFFSET 0.000000 0.000000 0.000000
  CHANNELS 6 Xposition Yposition Zposition Zrotation Xrotation Yrotation
  JOINT SpineMid
  {
    OFFSET 0.000000 34.517764 0.000000
    CHANNELS 3 Zrotation Xrotation Yrotation
    JOINT SpineShoulder
    {
      OFFSET -0.071343 25.673634 -0.952785
      CHANNELS 3 Zrotation Xrotation Yrotation
      JOINT Neck
      {
        OFFSET -0.063336 8.505487 -0.695285
        CHANNELS 3 Zrotation Xrotation Yrotation
        JOINT Head
        {
          OFFSET 1.832481 10.282270 4.811474
          CHANNELS 3 Zrotation Xrotation Yrotation
          End Site
          {
            OFFSET 0 0 0
          }
        }
      }
      JOINT ShoulderLeft
      {
        OFFSET -14.563865 -6.712137 -2.007863
        CHANNELS 3 Zrotation Xrotation Yrotation
        JOINT ElbowLeft
        {
          OFFSET -7.713063 -24.806461 5.688734
          CHANNELS 3 Zrotation Xrotation Yrotation
          JOINT WristLeft
          {
            OFFSET 3.291987 -20.123493 9.269210
            CHANNELS 3 Zrotation Xrotation Yrotation
            JOINT HandLeft
            {
              OFFSET 0.943450 -6.244952 -2.580997
              CHANNELS 3 Zrotation Xrotation Yrotation
              JOINT HandTipLeft
              {
                OFFSET 0.092376 -1.971969 -0.708958
                CHANNELS 3 Zrotation Xrotation Yrotation
                End Site
                {
                  OFFSET 0 0 0
                }
              }
              JOINT ThumbLeft
              {
                OFFSET 0.184180 3.092524 -3.926077
                CHANNELS 3 Zrotation Xrotation Yrotation
                End Site
                {
                  OFFSET 0 0 0
                }
              }
            }
          }
        }
      }
      JOINT ShoulderRight
      {
        OFFSET 12.395544 -7.100131 -11.246848
        CHANNELS 3 Zrotation Xrotation Yrotation
        JOINT ElbowRight
        {
          OFFSET 8.590858 -26.038709 0.585478
          CHANNELS 3 Zrotation Xrotation Yrotation
          JOINT WristRight
          {
            OFFSET 1.136352 -21.397583 7.095305
            CHANNELS 3 Zrotation Xrotation Yrotation
            JOINT HandRight
            {
              OFFSET 0.667679 -3.346485 1.163891
              CHANNELS 3 Zrotation Xrotation Yrotation
              JOINT HandTipRight
              {
                OFFSET -0.370834 -4.363505 -1.029333
                CHANNELS 3 Zrotation Xrotation Yrotation
                End Site
                {
                  OFFSET 0 0 0
                }
              }
              JOINT ThumbRight
              {
                OFFSET -2.040806 -0.185316 1.018097
                CHANNELS 3 Zrotation Xrotation Yrotation
                End Site
                {
                  OFFSET 0 0 0
                }
              }
            }
          }
        }
      }
    }
  }
  JOINT HipLeft
  {
    OFFSET -6.733235 1.301195 -1.397216
    CHANNELS 3 Zrotation Xrotation Yrotation
    JOINT KneeLeft
    {
      OFFSET -1.204393 -31.046351 -3.232480
      CHANNELS 3 Zrotation Xrotation Yrotation
      JOINT AnkleLeft
      {
        OFFSET -3.885787 -33.067317 -0.417787
        CHANNELS 3 Zrotation Xrotation Yrotation
        JOINT FootLeft
        {
          OFFSET -0.244587 -5.630861 -8.806846
          CHANNELS 3 Zrotation Xrotation Yrotation
          End Site
          {
            OFFSET 0 0 0
          }
        }
      }
    }
  }
  JOINT HipRight
  {
    OFFSET 6.158678 2.030820 -5.804014
    CHANNELS 3 Zrotation Xrotation Yrotation
    JOINT KneeRight
    {
      OFFSET 1.160367 -30.912459 -2.136115
      CHANNELS 3 Zrotation Xrotation Yrotation
      JOINT AnkleRight
      {
        OFFSET 0.723312 -33.925295 -0.915990
        CHANNELS 3 Zrotation Xrotation Yrotation
        JOINT FootRight
        {
          OFFSET -4.959253 -1.783709 -14.131981
          CHANNELS 3 Zrotation Xrotation Yrotation
          End Site
          {
            OFFSET 0 0 0
          }
        }
      }
    }
  }
}
MOTION
Frames: 9
Frame Time: 0.033333
23.301306 66.862464 245.872620 -0.799307 1.297680 23.634400 -0.029120 0.146415 -23.654318 -0.100551 0.139564 -0.040142 -4.784123 -0.686769 2.483696 0.000000 0.000000 0.000000 -14.084726 -13.129240 -1.621817 10.433481 8.129669 -3.596247 -6.236928 -50.159010 -7.646117 -91.632519 24.910012 104.830925 0.000000 0.000000 0.000000 0.000000 0.000000 0.000000 -1.851770 2.849431 1.519960 6.343920 -1.824152 0.232404 -21.005541 5.070860 -6.000975 21.655503 -24.266464 8.132609 0.000000 0.000000 0.000000 0.000000 0.000000 0.000000 -1.431403 -2.147271 -23.496589 -2.195016 0.480869 -0.006787 -9.507130 17.815811 17.268803 0.000000 0.000000 0.000000 -3.756168 -1.956296 -23.578706 1.991514 -0.155791 -0.206980 5.808868 -10.138631 -0.271863 0.000000 0.000000 0.000000
23.578293 66.611393 245.798677 -0.927116 1.505165 24.418068 -0.049045 0.185645 -24.440530 -0.088373 0.130776 -0.045383 -4.422745 -0.759289 2.363779 0.000000 0.000000 0.000000 -13.278735 -13.422127 -1.427302 16.138033 12.295724 -1.335423 -2.568180 -47.435046 -10.403049 -145.970610 28.620406 144.700687 0.000000 0.000000 0.000000 0.000000 0.000000 0.000000 -1.837040 3.175224 1.720810 6.597385 -2.019634 0.166715 -20.838531 3.451643 -6.520199 23.395449 -21.187110 7.682173 0.000000 0.000000 0.000000 0.000000 0.000000 0.000000 -1.623676 -2.259967 -24.266447 -1.944024 0.843068 -0.066533 -11.816870 19.912259 19.994003 0.000000 0.000000 0.000000 -4.171759 -2.086545 -24.362214 2.002434 -0.045499 -0.221139 7.379654 -13.193070 2.886776 0.000000 0.000000 0.000000
23.829916 66.748618 245.749181 -1.089128 1.708696 24.363593 -0.113732 0.257004 -24.391392 -0.078358 0.140653 -0.054187 -4.188487 -0.788260 2.335969 0.000000 0.000000 0.000000 -11.574270 -13.184104 -1.049102 27.292941 20.959510 2.226945 6.066470 -38.143084 -14.996555 136.305458 45.773312 -150.540091 0.000000 0.000000 0.000000 0.000000 0.000000 0.000000 -1.597950 3.596067 1.974812 6.652234 -2.265502 0.043854 -20.237890 0.805847 -7.188719 30.314621 -13.217839 5.516508 0.000000 0.000000 0.000000 0.000000 0.000000 0.000000 -1.942929 -2.302901 -24.181239 -1.236757 0.594260 -0.105734 -11.529373 17.530967 19.638502 0.000000 0.000000 0.000000 -4.142791 -2.065846 -24.293072 1.882302 -0.552224 -0.242253 7.715133 -12.891914 6.395244 0.000000 0.000000 0.000000
24.178563 66.807917 245.400401 -0.965162 2.058053 22.737572 -0.260057 0.344361 -22.767685 -0.063805 0.108435 -0.053578 -5.087768 -0.113490 2.569701 0.000000 0.000000 0.000000 -9.452803 -12.389775 -0.621249 47.272765 31.467612 5.085554 19.536149 -23.579163 -26.949826 44.914559 52.743817 -61.108216 0.000000 0.000000 0.000000 0.000000 0.000000 0.000000 -0.680120 4.227519 2.313202 5.719428 -2.619263 -0.250710 -19.691686 -1.902018 -7.860288 31.661837 -9.104765 4.032917 0.000000 0.000000 0.000000 0.000000 0.000000 0.000000 -2.557694 -3.463889 -22.561963 -1.249679 1.690409 -0.125886 -11.325024 17.542808 19.446711 0.000000 0.000000 0.000000 -5.081156 -2.297400 -22.671417 2.473726 -0.640720 -0.304751 6.496978 -9.453526 6.994400 0.000000 0.000000 0.000000
24.415009 67.572659 245.464169 -1.200044 2.190713 21.755151 -0.262390 0.346897 -21.787840 -0.068657 0.133088 -0.063220 -4.294383 0.338675 2.255125 0.000000 0.000000 0.000000 -6.607877 -10.986529 -0.086224 66.636290 45.517012 2.183872 12.334685 -25.502645 -35.670132 25.708126 32.742134 -29.922658 0.000000 0.000000 0.000000 0.000000 0.000000 0.000000 -0.512034 4.354573 2.435885 5.819852 -2.174408 -0.288894 -20.010738 -6.162523 -9.368837 30.715832 -3.570760 2.874047 0.000000 0.000000 0.000000 0.000000 0.000000 0.000000 -2.746254 -3.877411 -21.559712 -0.873449 2.039929 -0.173538 -12.460787 16.838303 21.029298 0.000000 0.000000 0.000000 -4.277827 -1.908967 -21.636081 1.842763 -1.652120 -0.310974 8.451467 -12.879828 9.781050 0.000000 0.000000 0.000000
24.529421 68.858486 245.846395 -1.745918 2.155554 21.298012 -0.195693 0.333622 -21.336088 -0.097341 0.215901 -0.084842 -2.150295 0.620618 1.536504 0.000000 0.000000 0.000000 -1.851339 -9.091305 0.873793 79.908391 56.595594 -6.065517 5.043519 -30.267948 -39.672074 24.173854 20.288650 -16.920091 0.000000 0.000000 0.000000 0.000000 0.000000 0.000000 0.023307 5.065743 2.759882 5.361952 -2.442927 -0.641616 -18.377788 -8.200468 -9.252039 29.552433 -1.227905 1.848805 0.000000 0.000000 0.000000 0.000000 0.000000 0.000000 -2.476379 -3.686807 -21.061973 -0.359932 1.637216 -0.213743 -14.649780 15.507652 24.130801 0.000000 0.000000 0.000000 -2.309760 -1.169253 -21.101835 0.605931 -3.151576 -0.311704 7.853147 -10.872790 13.910709 0.000000 0.000000 0.000000
24.553620 70.485093 246.469129 -2.476806 1.916170 21.315688 -0.051268 0.202582 -21.363198 -0.138562 0.232053 -0.113067 0.778885 1.486030 0.478375 0.000000 0.000000 0.000000 2.159545 -5.283358 1.004850 86.389022 64.235658 -12.396393 1.097926 -33.800033 -40.817940 25.569997 12.261127 -8.707688 0.000000 0.000000 0.000000 0.000000 0.000000 0.000000 0.480372 6.260667 3.148941 5.584096 -3.089562 -0.791077 -18.632516 -9.677907 -9.805510 28.008468 -0.091468 2.030939 0.000000 0.000000 0.000000 0.000000 0.000000 0.000000 -1.790487 -2.927727 -21.025676 -0.005755 0.861290 -0.244763 -17.178181 13.318790 28.055140 0.000000 0.000000 0.000000 0.355595 -0.124275 -21.049832 -1.029396 -4.872130 -0.346656 4.701496 -4.884122 21.257095 0.000000 0.000000 0.000000
24.472523 72.158406 247.236596 -3.348781 1.569295 18.009041 0.142392 0.177071 -18.072477 -0.202213 0.279434 -0.147005 4.165835 1.652698 -0.642872 0.000000 0.000000 0.000000 5.808704 -1.091202 0.639993 91.620448 71.300868 -20.072259 -0.762129 -37.086617 -40.007232 29.879711 7.748509 -3.192685 0.000000 0.000000 0.000000 0.000000 0.000000 0.000000 1.161200 7.270837 3.496322 5.791992 -3.648935 -0.877217 -19.561536 -9.884855 -10.322103 25.787116 -2.683460 3.604909 0.000000 0.000000 0.000000 0.000000 0.000000 0.000000 -1.050557 -2.636706 -17.655821 0.571768 0.584635 -0.291432 -19.804680 10.716544 32.115435 0.000000 0.000000 0.000000 3.582493 1.819866 -17.698815 -2.791316 -7.406871 -0.494831 4.698767 -4.357390 19.251558 0.000000 0.000000 0.000000
24.316519 73.646401 248.050271 -4.213402 1.162452 20.432541 0.378439 0.179139 -20.517942 -0.260917 0.327560 -0.178841 6.670864 1.420577 -1.319064 0.000000 0.000000 0.000000 7.966132 -0.611196 0.995963 93.330992 74.259273 -27.652543 -0.457546 -36.546038 -37.494743 32.303515 5.513555 -0.368989 0.000000 0.000000 0.000000 0.000000 0.000000 0.000000 2.616429 8.641696 3.922994 4.553929 -4.661729 -1.422047 -17.041105 -9.732042 -9.041861 24.469214 -3.999486 3.044749 0.000000 0.000000 0.000000 0.000000 0.000000 0.000000 -0.107954 -1.144914 -20.023489 0.800635 -0.477462 -0.329201 -21.585924 7.943802 35.369097 0.000000 0.000000 0.000000 6.293813 2.384168 -20.156853 -4.178838 -8.621199 -0.578011 6.780528 -8.093028 21.130610 0.000000 0.000000 0.000000
